<svg width="437" height="445" viewBox="0 0 437 445" fill="none" xmlns="http://www.w3.org/2000/svg">
<mask id="mask0_11_47" style="mask-type:luminance" maskUnits="userSpaceOnUse" x="-225" y="0" width="662" height="445">
<path d="M-225 0H436.5V444.062H-225V0Z" fill="white"/>
</mask>
<g mask="url(#mask0_11_47)">
<mask id="mask1_11_47" style="mask-type:luminance" maskUnits="userSpaceOnUse" x="-351" y="-46" width="1301" height="551">
<path d="M949.357 -45.888H-350.844V504.768H949.357V-45.888Z" fill="black" fill-opacity="0.39"/>
</mask>
<g mask="url(#mask1_11_47)">
<mask id="mask2_11_47" style="mask-type:luminance" maskUnits="userSpaceOnUse" x="-229" y="0" width="666" height="459">
<path d="M436.5 -1.52588e-05H-228.047V458.88H436.5V-1.52588e-05Z" fill="white"/>
</mask>
<g mask="url(#mask2_11_47)">
<mask id="mask3_11_47" style="mask-type:luminance" maskUnits="userSpaceOnUse" x="-225" y="0" width="658" height="444">
<path d="M-225 -1.52588e-05H432.945V443.584H-225V-1.52588e-05Z" fill="white"/>
</mask>
<g mask="url(#mask3_11_47)">
<path d="M-225 440.178C-225 438.087 -224.041 437.071 -222.066 437.071H223.637C335.825 437.071 427.076 340.455 427.076 221.672C427.076 102.889 335.825 6.21398 223.637 6.21398H-222.066C-224.041 6.21398 -225 5.19824 -225 3.10698C-225 1.07548 -224.041 -1.52588e-05 -222.066 -1.52588e-05H223.637C339.041 -1.52588e-05 432.945 99.424 432.945 221.672C432.945 343.861 339.041 443.285 223.637 443.285H-222.066C-224.041 443.285 -225 442.269 -225 440.178ZM-222.009 409.765H223.016C234.698 409.765 246.21 408.57 257.666 406.18C269.122 403.731 280.239 400.146 290.961 395.425C301.74 390.705 312.01 384.909 321.717 378.038C331.367 371.167 340.339 363.399 348.635 354.616C356.874 345.893 364.21 336.393 370.7 326.115C377.19 315.838 382.664 305.024 387.122 293.611C391.58 282.199 394.966 270.428 397.223 258.299C399.48 246.23 400.609 233.981 400.609 221.613C400.609 209.304 399.48 197.055 397.223 184.926C394.966 172.797 391.58 161.026 387.122 149.614C382.664 138.261 377.19 127.387 370.7 117.11C364.21 106.833 356.874 97.3327 348.635 88.6092C340.339 79.8857 331.367 72.0585 321.717 65.1872C312.01 58.3757 301.74 52.5202 290.961 47.8C280.239 43.0797 269.122 39.4947 257.666 37.1047C246.21 34.7147 234.698 33.46 223.016 33.46H-222.009C-223.984 33.46 -224.944 34.5355 -224.944 36.567C-224.944 38.6582 -223.984 39.674 -222.009 39.674H223.016C234.303 39.674 245.477 40.869 256.537 43.1992C267.598 45.5295 278.32 48.995 288.76 53.536C299.2 58.1367 309.076 63.6935 318.5 70.3257C327.868 77.0177 336.558 84.5462 344.515 92.971C352.472 101.396 359.639 110.597 365.903 120.575C372.167 130.494 377.472 140.95 381.761 152.004C386.106 163.058 389.323 174.41 391.523 186.121C393.724 197.832 394.853 209.663 394.853 221.613C394.853 233.563 393.724 245.393 391.523 257.104C389.323 268.815 386.106 280.227 381.761 291.221C377.472 302.275 372.167 312.791 365.903 322.71C359.639 332.628 352.472 341.83 344.515 350.254C336.558 358.739 327.868 366.267 318.5 372.9C309.076 379.532 299.2 385.148 288.76 389.689C278.32 394.29 267.598 397.756 256.537 400.086C245.477 402.416 234.303 403.551 223.016 403.551H-222.009C-223.984 403.551 -224.944 404.627 -224.944 406.658C-224.944 408.75 -223.984 409.765 -222.009 409.765ZM-221.896 376.305H222.452C232.046 376.305 241.526 375.349 250.95 373.378C260.375 371.406 269.517 368.478 278.377 364.535C287.237 360.651 295.645 355.931 303.602 350.254C311.559 344.638 318.951 338.245 325.723 331.015C332.495 323.845 338.59 316.077 343.895 307.593C349.199 299.168 353.714 290.265 357.382 280.885C361.05 271.504 363.815 261.824 365.677 251.846C367.596 241.928 368.499 231.83 368.499 221.732C368.499 211.575 367.596 201.477 365.677 191.558C363.815 181.58 361.05 171.901 357.382 162.52C353.714 153.139 349.199 144.236 343.895 135.812C338.59 127.327 332.495 119.56 325.723 112.39C318.951 105.16 311.559 98.7667 303.602 93.1502C295.645 87.474 287.237 82.7537 278.377 78.87C269.517 74.9862 260.375 71.9987 250.95 70.027C241.526 68.0552 232.046 67.0992 222.452 67.0992H-221.896C-223.871 67.0992 -224.831 68.115 -224.831 70.2062C-224.831 72.2377 -223.871 73.3132 -221.896 73.3132H222.452C231.651 73.3132 240.793 74.2692 249.822 76.1215C258.851 78.0335 267.598 80.8417 276.119 84.606C284.584 88.3105 292.71 92.9112 300.329 98.2887C308.004 103.726 315.058 109.88 321.604 116.751C328.093 123.623 333.906 131.151 338.985 139.277C344.12 147.343 348.466 155.888 351.964 164.91C355.463 173.932 358.172 183.193 359.921 192.753C361.727 202.313 362.63 211.933 362.63 221.732C362.63 231.471 361.727 241.091 359.921 250.651C358.172 260.211 355.463 269.472 351.964 278.495C348.466 287.517 344.12 296.061 338.985 304.127C333.906 312.253 328.093 319.782 321.604 326.653C315.058 333.524 308.004 339.679 300.329 345.116C292.71 350.493 284.584 355.094 276.119 358.799C267.598 362.563 258.851 365.371 249.822 367.283C240.793 369.135 231.651 370.091 222.452 370.091H-221.896C-223.871 370.091 -224.831 371.167 -224.831 373.198C-224.831 375.29 -223.871 376.305 -221.896 376.305ZM-221.783 342.845H221.888C229.45 342.905 236.955 342.188 244.404 340.754C251.797 339.26 259.02 336.99 266.074 334.002C273.072 331.015 279.731 327.31 286.051 322.889C292.372 318.467 298.241 313.448 303.602 307.832C309.019 302.215 313.816 296.061 318.049 289.429C322.281 282.797 325.836 275.746 328.771 268.397C331.649 260.988 333.85 253.34 335.373 245.513C336.841 237.626 337.574 229.679 337.574 221.672C337.574 213.666 336.841 205.779 335.373 197.892C333.85 190.065 331.649 182.417 328.771 175.008C325.836 167.658 322.281 160.608 318.049 153.976C313.816 147.343 309.019 141.189 303.602 135.573C298.241 129.896 292.372 124.877 286.051 120.516C279.731 116.094 273.072 112.39 266.074 109.402C259.02 106.415 251.797 104.144 244.404 102.65C236.955 101.157 229.45 100.499 221.888 100.559H-221.783C-223.759 100.559 -224.718 101.635 -224.718 103.666C-224.718 105.757 -223.759 106.773 -221.783 106.773H221.888C229.055 106.713 236.165 107.371 243.219 108.745C250.273 110.179 257.158 112.33 263.817 115.138C270.476 118.006 276.797 121.531 282.778 125.714C288.76 129.837 294.347 134.617 299.426 139.994C304.561 145.312 309.132 151.108 313.139 157.441C317.146 163.715 320.532 170.407 323.297 177.398C326.062 184.448 328.15 191.678 329.561 199.087C330.972 206.556 331.649 214.084 331.649 221.672C331.649 229.32 330.972 236.849 329.561 244.258C328.15 251.727 326.062 258.956 323.297 266.007C320.532 272.998 317.146 279.63 313.139 285.963C309.132 292.237 304.561 298.093 299.426 303.41C294.347 308.788 288.76 313.508 282.778 317.691C276.797 321.873 270.476 325.398 263.817 328.266C257.158 331.075 250.273 333.226 243.219 334.6C236.165 336.034 229.055 336.691 221.888 336.631H-221.783C-223.759 336.631 -224.718 337.647 -224.718 339.738C-224.718 341.77 -223.759 342.845 -221.783 342.845ZM-221.727 309.326H221.323C226.741 309.326 232.102 308.788 237.463 307.653C242.768 306.517 247.96 304.844 252.982 302.634C258.005 300.483 262.745 297.734 267.259 294.567C271.83 291.341 276.006 287.756 279.844 283.693C283.681 279.57 287.124 275.149 290.115 270.369C293.162 265.589 295.701 260.57 297.789 255.252C299.821 249.934 301.401 244.437 302.473 238.821C303.545 233.144 304.053 227.468 304.053 221.732C304.053 215.936 303.545 210.26 302.473 204.584C301.401 198.967 299.821 193.47 297.789 188.153C295.701 182.835 293.162 177.816 290.115 173.036C287.124 168.256 283.681 163.834 279.844 159.771C276.006 155.649 271.83 152.064 267.259 148.837C262.745 145.67 258.005 142.922 252.982 140.771C247.96 138.56 242.768 136.887 237.463 135.752C232.102 134.617 226.741 134.079 221.323 134.079H-221.727C-223.646 134.079 -224.661 135.095 -224.661 137.186C-224.661 139.277 -223.646 140.293 -221.727 140.293H221.323C226.346 140.293 231.368 140.831 236.278 141.846C241.244 142.922 246.041 144.475 250.725 146.507C255.409 148.538 259.81 151.048 264.043 154.035C268.219 156.963 272.113 160.369 275.668 164.133C279.223 167.897 282.44 172.02 285.261 176.501C288.027 180.923 290.397 185.643 292.315 190.543C294.291 195.502 295.701 200.581 296.717 205.839C297.676 211.037 298.184 216.355 298.184 221.732C298.184 227.05 297.676 232.368 296.717 237.566C295.701 242.824 294.291 247.903 292.315 252.862C290.397 257.821 288.027 262.482 285.261 266.903C282.44 271.384 279.223 275.507 275.668 279.271C272.113 283.036 268.219 286.441 264.043 289.369C259.81 292.357 255.409 294.866 250.725 296.898C246.041 298.929 241.244 300.483 236.278 301.558C231.368 302.574 226.346 303.112 221.323 303.112H-221.727C-223.646 303.112 -224.661 304.127 -224.661 306.219C-224.661 308.31 -223.646 309.326 -221.727 309.326ZM-221.614 275.806H220.759C227.587 275.925 234.19 274.671 240.567 271.982C246.944 269.293 252.531 265.409 257.44 260.271C262.35 255.192 266.074 249.337 268.727 242.645C271.379 235.953 272.733 228.962 272.733 221.672C272.733 214.443 271.379 207.452 268.727 200.76C266.074 194.068 262.35 188.212 257.44 183.074C252.531 177.995 246.944 174.111 240.567 171.423C234.19 168.734 227.587 167.479 220.759 167.599H-221.614C-223.589 167.599 -224.549 168.614 -224.549 170.706C-224.549 172.737 -223.589 173.813 -221.614 173.813H220.759C226.797 173.693 232.666 174.828 238.31 177.218C243.953 179.549 248.919 183.014 253.264 187.495C257.61 192.036 260.939 197.235 263.253 203.15C265.623 209.065 266.808 215.279 266.808 221.672C266.808 228.125 265.623 234.28 263.253 240.255C260.939 246.17 257.61 251.368 253.264 255.849C248.919 260.39 243.953 263.796 238.31 266.186C232.666 268.576 226.797 269.711 220.759 269.592H-221.614C-223.589 269.592 -224.549 270.608 -224.549 272.699C-224.549 274.79 -223.589 275.806 -221.614 275.806Z" fill="#C12026"/>
</g>
</g>
</g>
</g>
</svg>
