<svg width="61" height="61" viewBox="0 0 61 61" fill="none" xmlns="http://www.w3.org/2000/svg">
<circle cx="30.5" cy="30.5" r="30.5" fill="#C12026"/>
<path d="M21.8513 18.49C21.7406 18.3476 21.6009 18.2304 21.4414 18.1462C21.2819 18.0619 21.1064 18.0126 20.9264 18.0014C20.7464 17.9902 20.5661 18.0175 20.3974 18.0814C20.2287 18.1452 20.0756 18.2443 19.9482 18.3719L18.0094 20.3125C17.1038 21.22 16.77 22.5044 17.1657 23.6313C18.8095 28.2946 21.4803 32.5289 24.9807 36.0213C28.473 39.5216 32.7073 42.1924 37.3707 43.8363C38.4975 44.2319 39.7819 43.8981 40.6894 42.9925L42.6282 41.0538C42.7558 40.9263 42.8548 40.7732 42.9187 40.6045C42.9825 40.4359 43.0098 40.2555 42.9986 40.0755C42.9874 39.8955 42.9381 39.72 42.8539 39.5605C42.7696 39.401 42.6524 39.2613 42.51 39.1506L38.1844 35.7869C38.0322 35.6691 37.8552 35.5874 37.6669 35.5478C37.4785 35.5082 37.2837 35.5117 37.0969 35.5581L32.9907 36.5838C32.4425 36.7198 31.8685 36.7121 31.3242 36.5613C30.7799 36.4105 30.2838 36.1218 29.8838 35.7231L25.2788 31.1163C24.8797 30.7164 24.5907 30.2204 24.4396 29.6761C24.2885 29.1318 24.2805 28.5577 24.4163 28.0094L25.4438 23.9031C25.4902 23.7164 25.4937 23.5215 25.4541 23.3331C25.4145 23.1448 25.3328 22.9679 25.215 22.8156L21.8513 18.49ZM18.5325 16.9581C18.8606 16.6299 19.2548 16.3752 19.6889 16.2111C20.123 16.0469 20.587 15.9769 21.0502 16.0058C21.5134 16.0347 21.9652 16.1618 22.3755 16.3787C22.7858 16.5956 23.1453 16.8973 23.43 17.2638L26.7938 21.5875C27.4107 22.3806 27.6282 23.4138 27.3844 24.3888L26.3588 28.495C26.3061 28.7077 26.3092 28.9304 26.3676 29.1416C26.4261 29.3527 26.538 29.5453 26.6925 29.7006L31.2994 34.3075C31.4549 34.4624 31.6478 34.5744 31.8593 34.6329C32.0709 34.6914 32.2939 34.6943 32.5069 34.6413L36.6113 33.6156C37.0925 33.496 37.5945 33.487 38.0797 33.5893C38.5649 33.6916 39.0206 33.9025 39.4125 34.2063L43.7363 37.57C45.2907 38.7794 45.4332 41.0763 44.0419 42.4656L42.1032 44.4044C40.7157 45.7919 38.6419 46.4013 36.7088 45.7206C31.76 43.9817 27.2673 41.1489 23.565 37.4331C19.8495 33.7314 17.0167 29.2393 15.2775 24.2913C14.5988 22.36 15.2082 20.2844 16.5957 18.8969L18.5325 16.9581Z" fill="white"/>
</svg>
