<svg width="61" height="61" viewBox="0 0 61 61" fill="none" xmlns="http://www.w3.org/2000/svg">
<circle cx="30.5" cy="30.5" r="30.5" fill="#C12026"/>
<path d="M30 27.6667C30.766 27.6667 31.5246 27.5158 32.2323 27.2226C32.9401 26.9295 33.5831 26.4998 34.1248 25.9581C34.6665 25.4164 35.0961 24.7734 35.3893 24.0657C35.6824 23.3579 35.8333 22.5994 35.8333 21.8333C35.8333 21.0673 35.6824 20.3087 35.3893 19.601C35.0961 18.8933 34.6665 18.2502 34.1248 17.7085C33.5831 17.1669 32.9401 16.7372 32.2323 16.444C31.5246 16.1509 30.766 16 30 16C28.4529 16 26.9692 16.6146 25.8752 17.7085C24.7812 18.8025 24.1667 20.2862 24.1667 21.8333C24.1667 23.3804 24.7812 24.8642 25.8752 25.9581C26.9692 27.0521 28.4529 27.6667 30 27.6667ZM15 45V46H45V45C45 41.2667 45 39.4 44.2733 37.9733C43.6342 36.719 42.6144 35.6991 41.36 35.06C39.9333 34.3333 38.0667 34.3333 34.3333 34.3333H25.6667C21.9333 34.3333 20.0667 34.3333 18.64 35.06C17.3856 35.6991 16.3658 36.719 15.7267 37.9733C15 39.4 15 41.2667 15 45Z" stroke="white" stroke-width="4" stroke-linecap="round" stroke-linejoin="round"/>
</svg>
