<svg width="61" height="61" viewBox="0 0 61 61" fill="none" xmlns="http://www.w3.org/2000/svg">
<circle cx="30.5" cy="30.5" r="30.5" fill="#C12026"/>
<g clip-path="url(#clip0_15_96)">
<path fill-rule="evenodd" clip-rule="evenodd" d="M32.0467 15.48C31.4615 15.0248 30.7413 14.7777 30 14.7777C29.2587 14.7777 28.5385 15.0248 27.9533 15.48L13.98 26.3467C12.7267 27.325 13.4167 29.3334 15.005 29.3334H16.825L18.1917 42.9984C18.2739 43.8209 18.6588 44.5835 19.2717 45.1382C19.8846 45.6928 20.6817 46 21.5083 46H38.4917C39.3183 46 40.1154 45.6928 40.7283 45.1382C41.3412 44.5835 41.7261 43.8209 41.8083 42.9984L43.175 29.3334H44.995C46.5817 29.3334 47.275 27.325 46.02 26.3484L32.0467 15.48ZM30 37.6667C31.3261 37.6667 32.5979 37.1399 33.5355 36.2022C34.4732 35.2645 35 33.9928 35 32.6667C35 31.3406 34.4732 30.0688 33.5355 29.1312C32.5979 28.1935 31.3261 27.6667 30 27.6667C28.6739 27.6667 27.4021 28.1935 26.4645 29.1312C25.5268 30.0688 25 31.3406 25 32.6667C25 33.9928 25.5268 35.2645 26.4645 36.2022C27.4021 37.1399 28.6739 37.6667 30 37.6667Z" fill="white"/>
</g>
<defs>
<clipPath id="clip0_15_96">
<rect width="40" height="40" fill="white" transform="translate(10 11)"/>
</clipPath>
</defs>
</svg>
