<svg width="61" height="61" viewBox="0 0 61 61" fill="none" xmlns="http://www.w3.org/2000/svg">
<circle cx="30.5" cy="30.5" r="30.5" fill="#C12026"/>
<path d="M44.0925 16.9075L48.2825 17.745C48.5075 17.79 48.6925 17.955 48.7575 18.1775C48.7903 18.2856 48.7933 18.4005 48.766 18.5101C48.7387 18.6198 48.6822 18.7199 48.6025 18.8L45.17 22.235C44.7593 22.6449 44.2028 22.8751 43.6225 22.875H40.775L33.625 30.0275C33.7614 30.5425 33.7865 31.0808 33.6986 31.6063C33.6107 32.1318 33.4118 32.6325 33.1152 33.0751C32.8186 33.5178 32.431 33.8921 31.9784 34.1732C31.5258 34.4543 31.0185 34.6357 30.4902 34.7054C29.962 34.775 29.425 34.7313 28.9149 34.5772C28.4049 34.423 27.9336 34.1619 27.5324 33.8113C27.1312 33.4607 26.8093 33.0286 26.5882 32.5439C26.3671 32.0591 26.2518 31.5328 26.25 31C26.2504 30.4247 26.383 29.8572 26.6377 29.3414C26.8923 28.8256 27.2621 28.3752 27.7186 28.025C28.175 27.6749 28.7059 27.4344 29.2701 27.3221C29.8343 27.2098 30.4168 27.2288 30.9725 27.3775L38.125 20.2225V17.38C38.125 16.8 38.355 16.2425 38.765 15.8325L42.2 12.3975C42.2801 12.3178 42.3802 12.2613 42.4898 12.234C42.5995 12.2067 42.7144 12.2097 42.8225 12.2425C43.045 12.3075 43.21 12.4925 43.255 12.7175L44.0925 16.9075Z" fill="white"/>
<path d="M15 31C15.0026 33.1449 15.4651 35.2643 16.3564 37.2152C17.2477 39.1662 18.5471 40.9033 20.1668 42.3094C21.7866 43.7154 23.689 44.7578 25.7459 45.3661C27.8027 45.9744 29.9661 46.1346 32.09 45.8357C34.214 45.5368 36.2492 44.7859 38.0583 43.6336C39.8674 42.4814 41.4084 40.9545 42.5772 39.156C43.746 37.3576 44.5156 35.3294 44.8339 33.2082C45.1522 31.0871 45.0119 28.9223 44.4225 26.86C44.3398 26.619 44.3069 26.3638 44.326 26.1097C44.345 25.8557 44.4155 25.6082 44.5333 25.3823C44.6511 25.1564 44.8136 24.9568 45.0109 24.7957C45.2083 24.6346 45.4363 24.5153 45.6813 24.4452C45.9262 24.375 46.1828 24.3555 46.4355 24.3877C46.6882 24.4199 46.9317 24.5032 47.1512 24.6325C47.3707 24.7618 47.5616 24.9344 47.7123 25.1399C47.8629 25.3453 47.9702 25.5793 48.0275 25.8275C49.1688 29.8213 48.952 34.081 47.4111 37.9383C45.8703 41.7956 43.0925 45.0323 39.5135 47.1405C35.9346 49.2487 31.7571 50.1092 27.6364 49.587C23.5157 49.0648 19.6849 47.1893 16.745 44.255C13.8084 41.3159 11.931 37.4847 11.4075 33.363C10.8841 29.2413 11.7443 25.0625 13.8531 21.4827C15.9618 17.9028 19.1998 15.1246 23.0585 13.5843C26.9172 12.044 31.1782 11.8288 35.1725 12.9725C35.6481 13.1115 36.0494 13.4332 36.2885 13.8671C36.5277 14.3011 36.5854 14.8121 36.449 15.2884C36.3125 15.7648 35.9931 16.1678 35.5604 16.4093C35.1278 16.6509 34.6171 16.7113 34.14 16.5775C31.9065 15.9367 29.5546 15.8234 27.2698 16.2467C24.985 16.6699 22.8298 17.6181 20.974 19.0165C19.1182 20.4149 17.6126 22.2252 16.5759 24.3048C15.5392 26.3844 14.9997 28.6763 15 31Z" fill="white"/>
<path d="M22.5 31C22.5002 32.3665 22.8734 33.707 23.5794 34.8769C24.2855 36.0469 25.2975 37.0019 26.5064 37.6389C27.7154 38.2759 29.0752 38.5707 30.4394 38.4916C31.8036 38.4125 33.1203 37.9625 34.2475 37.19C35.3745 36.4156 36.2683 35.3479 36.8323 34.1022C37.3963 32.8565 37.6091 31.4804 37.4475 30.1225C37.4038 29.793 37.4487 29.4578 37.5776 29.1515C37.7065 28.8451 37.9148 28.5786 38.1809 28.3795C38.447 28.1803 38.7614 28.0557 39.0917 28.0185C39.422 27.9812 39.7562 28.0327 40.06 28.1675C40.3637 28.3006 40.6267 28.5119 40.8222 28.7798C41.0176 29.0477 41.1385 29.3627 41.1725 29.6925C41.4441 32.0128 40.9867 34.36 39.8638 36.4085C38.7408 38.457 37.008 40.1051 34.9059 41.1241C32.8037 42.1431 30.4365 42.4823 28.1327 42.0948C25.829 41.7073 23.703 40.6123 22.0499 38.9617C20.3968 37.3111 19.2985 35.1868 18.9075 32.8836C18.5165 30.5805 18.8522 28.2127 19.868 26.109C20.8837 24.0053 22.5292 22.27 24.576 21.1439C26.6228 20.0179 28.9693 19.5569 31.29 19.825C31.5385 19.8481 31.7799 19.9205 32 20.0381C32.2201 20.1556 32.4146 20.3159 32.572 20.5096C32.7293 20.7033 32.8465 20.9264 32.9165 21.166C32.9865 21.4055 33.008 21.6566 32.9797 21.9046C32.9514 22.1525 32.8739 22.3923 32.7517 22.6099C32.6296 22.8275 32.4652 23.0185 32.2682 23.1718C32.0713 23.3251 31.8457 23.4374 31.6048 23.5024C31.3638 23.5673 31.1123 23.5835 30.865 23.55C29.8141 23.428 28.7494 23.5297 27.7406 23.8484C26.7318 24.1671 25.8019 24.6956 25.0119 25.3992C24.2219 26.1028 23.5896 26.9656 23.1567 27.9309C22.7238 28.8962 22.5 29.9421 22.5 31Z" fill="white"/>
</svg>
